<svg width="100" height="30" viewBox="0 0 100 30" fill="none" xmlns="http://www.w3.org/2000/svg">
<g opacity="0.8">
<path opacity="0.8" fill-rule="evenodd" clip-rule="evenodd" d="M6.42126 29.9984C6.16287 29.9984 5.91073 29.9954 5.65438 29.99C5.12331 29.9836 4.59349 29.9409 4.06926 29.8621C3.58044 29.7843 3.1069 29.6394 2.66427 29.4324C2.22569 29.2271 1.82568 28.9579 1.47954 28.6351C1.1284 28.3161 0.836061 27.9462 0.614104 27.5399C0.389702 27.131 0.234402 26.6926 0.153615 26.2402C0.0663718 25.754 0.0191696 25.2625 0.0124154 24.7697C0.00703879 24.6043 0 24.0536 0 24.0536V5.93643C0 5.93643 0.00749673 5.39417 0.0124578 5.23486C0.0189249 4.74288 0.0658526 4.25205 0.152835 3.76665C0.233771 3.31296 0.389191 2.87338 0.613714 2.46311C0.834855 2.0571 1.12557 1.68686 1.4746 1.36674C1.82323 1.04357 2.22453 0.772982 2.66385 0.564841C3.10547 0.358486 3.57811 0.214681 4.06594 0.138244C4.5919 0.0586919 5.12356 0.0156824 5.65646 0.00957597L6.42167 0H93.5742L94.3485 0.00996026C94.8766 0.0157633 95.4034 0.0583891 95.9245 0.137475C96.4173 0.214871 96.8949 0.35968 97.3415 0.567139C98.2217 0.986604 98.9378 1.65024 99.3896 2.46502C99.6105 2.87246 99.7635 3.30846 99.8434 3.75823C99.9315 4.24761 99.9807 4.74229 99.9908 5.23831C99.9933 5.46042 99.9933 5.699 99.9933 5.93643C100 6.23053 100 6.51046 100 6.79269V23.2065C100 23.4914 100 23.7694 99.9933 24.0497C99.9933 24.3048 99.9933 24.5384 99.99 24.7789C99.9801 25.266 99.9317 25.7519 99.8451 26.2325C99.7659 26.6882 99.6115 27.13 99.3871 27.5422C99.1636 27.9441 98.8729 28.3109 98.5258 28.629C98.1794 28.9535 97.7787 29.2243 97.3391 29.4309C96.8937 29.6395 96.4168 29.7849 95.9245 29.8621C95.4003 29.9413 94.8705 29.9841 94.3394 29.99C94.091 29.9954 93.8309 29.9984 93.5783 29.9984L92.659 30L6.42126 29.9984Z" fill="black"/>
<path opacity="0.8" fill-rule="evenodd" clip-rule="evenodd" d="M17.3987 15.0669C17.415 13.8078 18.0756 12.6447 19.1492 11.9853C18.4689 11.0144 17.3702 10.4209 16.1845 10.3839C14.9372 10.253 13.7279 11.1296 13.0922 11.1296C12.4443 11.1296 11.4656 10.3968 10.4118 10.4185C9.02515 10.4633 7.7638 11.2319 7.08918 12.4431C5.65257 14.9283 6.72416 18.5806 8.10031 20.5894C8.78883 21.5731 9.59351 22.6718 10.6464 22.6329C11.6768 22.5902 12.0616 21.9764 13.3053 21.9764C14.5375 21.9764 14.8985 22.6329 15.9728 22.6081C17.0784 22.5902 17.7749 21.6201 18.4393 20.6271C18.934 19.9262 19.3147 19.1516 19.5672 18.3319C18.2541 17.777 17.4003 16.4914 17.3987 15.0669Z" fill="white"/>
<path opacity="0.8" fill-rule="evenodd" clip-rule="evenodd" d="M15.3698 9.06286C15.9727 8.33982 16.2696 7.41046 16.1977 6.47217C15.2768 6.56881 14.426 7.0086 13.8151 7.70391C13.2118 8.38992 12.9062 9.2874 12.9655 10.1987C13.8988 10.2083 14.785 9.78966 15.3698 9.06286Z" fill="white"/>
<path opacity="0.8" fill-rule="evenodd" clip-rule="evenodd" d="M27.9069 20.1426H31.423L32.2666 22.6337H33.7813L30.4509 13.4172H28.9036L25.5732 22.6337H27.0625L27.9069 20.1426ZM31.0581 18.9931H28.271L29.6457 14.9502H29.6842L31.0581 18.9931Z" fill="white"/>
<path opacity="0.8" fill-rule="evenodd" clip-rule="evenodd" d="M38.1671 22.7042C39.8551 22.7042 40.9737 21.3626 40.9737 19.2744C40.9737 17.1921 39.8486 15.844 38.1417 15.844C37.2634 15.8157 36.4406 16.2721 36.0003 17.0319H35.9749V15.9143H34.6387V24.8568H36.0191V21.5285H36.0511C36.4727 22.2931 37.2946 22.7498 38.1671 22.7042ZM37.7776 17.0196C38.8512 17.0196 39.5549 17.914 39.5549 19.2745C39.5549 20.6472 38.8512 21.5351 37.7776 21.5351C36.7229 21.5351 36.0134 20.6284 36.0134 19.2745C36.0134 17.9329 36.7229 17.0196 37.7776 17.0196Z" fill="white"/>
<path opacity="0.8" fill-rule="evenodd" clip-rule="evenodd" d="M45.5692 22.7042C47.2572 22.7042 48.3758 21.3626 48.3758 19.2744C48.3758 17.1921 47.2507 15.844 45.5438 15.844C44.6655 15.8157 43.8427 16.2721 43.4024 17.0319H43.377V15.9143H42.0408V24.8568H43.4212V21.5285H43.4532C43.8748 22.2931 44.6967 22.7498 45.5692 22.7042ZM45.1797 17.0196C46.2533 17.0196 46.9569 17.914 46.9569 19.2745C46.9569 20.6472 46.2533 21.5351 45.1797 21.5351C44.1249 21.5351 43.4155 20.6284 43.4155 19.2745C43.4155 17.9329 44.1249 17.0196 45.1797 17.0196Z" fill="white"/>
<path opacity="0.8" fill-rule="evenodd" clip-rule="evenodd" d="M53.2681 20.0659C53.3704 20.9799 54.259 21.58 55.4733 21.58C56.6369 21.58 57.474 20.9799 57.474 20.1558C57.474 19.4404 56.9691 19.0121 55.7736 18.7185L54.5782 18.4308C52.8843 18.022 52.098 17.2305 52.098 15.9462C52.098 14.356 53.485 13.2637 55.4545 13.2637C57.4036 13.2637 58.7398 14.356 58.7848 15.9462H57.3913C57.3079 15.0264 56.5469 14.4712 55.4349 14.4712C54.3228 14.4712 53.5619 15.0329 53.5619 15.8505C53.5619 16.5021 54.0479 16.8855 55.2368 17.179L56.2531 17.4283C58.1457 17.8755 58.9321 18.6351 58.9321 19.9832C58.9321 21.7075 57.5574 22.7875 55.371 22.7875C53.3254 22.7875 51.9442 21.7329 51.855 20.0659H53.2681Z" fill="white"/>
<path opacity="0.8" fill-rule="evenodd" clip-rule="evenodd" d="M61.9112 14.324V15.9142H63.1901V17.0065H61.9112V20.7109C61.9112 21.2864 62.1673 21.5546 62.7295 21.5546C62.8813 21.5519 63.0329 21.5413 63.1836 21.5227V22.6084C62.9309 22.6556 62.6739 22.677 62.4169 22.6722C61.0553 22.6722 60.5243 22.1612 60.5243 20.858V17.0065H59.5464V15.9142H60.5242V14.324H61.9112Z" fill="white"/>
<path opacity="0.8" fill-rule="evenodd" clip-rule="evenodd" d="M67.1205 15.8315C65.1771 15.8315 63.9309 17.16 63.9309 19.2743C63.9309 21.3943 65.1648 22.717 67.1205 22.717C69.077 22.717 70.3109 21.3943 70.3109 19.2743C70.3109 17.16 69.0704 15.8315 67.1205 15.8315ZM67.1205 16.968C68.2391 16.968 68.9043 17.824 68.9043 19.2743H68.9042C68.9042 20.7304 68.2391 21.5798 67.1205 21.5798C66.0019 21.5798 65.3374 20.7304 65.3374 19.2743C65.3374 17.8305 66.0019 16.968 67.1205 16.968Z" fill="white"/>
<path opacity="0.8" fill-rule="evenodd" clip-rule="evenodd" d="M71.449 15.9143H72.7656V17.058H72.7975C72.9811 16.3218 73.6563 15.815 74.4152 15.844C74.5743 15.8434 74.7329 15.8607 74.8882 15.8955V17.1856C74.6873 17.1243 74.4778 17.0961 74.2679 17.1022C73.8621 17.0858 73.4693 17.2474 73.1928 17.5446C72.9162 17.8418 72.7835 18.245 72.8294 18.6482V22.6338H71.449V15.9143Z" fill="white"/>
<path opacity="0.8" fill-rule="evenodd" clip-rule="evenodd" d="M78.357 22.717C79.8782 22.717 81.0672 21.8799 81.2529 20.6601H79.9421C79.6905 21.2836 79.0589 21.6679 78.389 21.6052C77.8867 21.6237 77.4006 21.4256 77.0545 21.0615C76.7083 20.6973 76.5354 20.2022 76.5798 19.7019V19.6185H81.3298V19.146C81.3298 17.1086 80.1597 15.8315 78.299 15.8315C76.4071 15.8315 75.1863 17.1985 75.1863 19.3062C75.1863 21.4073 76.4006 22.717 78.357 22.717ZM79.9486 18.6546H76.5864C76.5852 18.2009 76.7654 17.7655 77.0871 17.4453C77.4087 17.125 77.845 16.9464 78.2991 16.9491C78.7495 16.9395 79.1837 17.118 79.4968 17.4417C79.8099 17.7655 79.9737 18.205 79.9486 18.6546Z" fill="white"/>
<path opacity="0.8" d="M27.3042 8.41303H27.8949C28.1369 8.41303 28.3327 8.35049 28.4824 8.22539C28.6321 8.10029 28.707 7.93725 28.707 7.73628C28.707 7.53735 28.6362 7.37944 28.4947 7.26255C28.3553 7.1477 28.1635 7.09028 27.9195 7.09028C27.6734 7.09028 27.4745 7.15078 27.3227 7.27178C27.1709 7.39277 27.0869 7.55786 27.0705 7.76704H26.3291C26.3496 7.36303 26.5044 7.04209 26.7936 6.8042C27.0828 6.56836 27.4652 6.45044 27.941 6.45044C28.3942 6.45044 28.7634 6.5622 29.0484 6.78574C29.3335 7.00722 29.476 7.29433 29.476 7.64707C29.476 7.89521 29.3991 8.11362 29.2453 8.30229C29.0915 8.49096 28.8916 8.61299 28.6455 8.66836V8.69297C28.9428 8.72783 29.1787 8.8437 29.353 9.04057C29.5273 9.23745 29.6145 9.48559 29.6145 9.78501C29.6145 10.1644 29.4545 10.4802 29.1346 10.7324C28.8126 10.9847 28.4096 11.1108 27.9256 11.1108C27.4314 11.1108 27.0294 10.9888 26.7198 10.7448C26.4081 10.5007 26.2419 10.1777 26.2214 9.77578H26.9843C27.0007 9.98291 27.0951 10.148 27.2673 10.271C27.4375 10.392 27.658 10.4525 27.9287 10.4525C28.1892 10.4525 28.3994 10.3869 28.5593 10.2556C28.7193 10.1244 28.7993 9.95215 28.7993 9.73887C28.7993 9.52353 28.7203 9.35537 28.5624 9.23437C28.4065 9.11338 28.1892 9.05288 27.9103 9.05288H27.3042V8.41303Z" fill="white"/>
<path opacity="0.8" d="M31.4139 10.4493C31.6477 10.4493 31.8425 10.3837 31.9984 10.2525C32.1542 10.1212 32.2322 9.95405 32.2322 9.75102V9.4957L31.4631 9.54492C31.0366 9.57363 30.8233 9.72744 30.8233 10.0064C30.8233 10.1417 30.8776 10.2494 30.9863 10.3294C31.093 10.4094 31.2355 10.4493 31.4139 10.4493ZM31.1894 11.0369C30.8571 11.0369 30.5854 10.9446 30.3742 10.76C30.1609 10.5755 30.0542 10.3345 30.0542 10.0371C30.0542 9.73769 30.166 9.5039 30.3895 9.33574C30.611 9.16757 30.934 9.07016 31.3585 9.0435L32.2322 8.99121V8.74511C32.2322 8.56874 32.1748 8.43237 32.0599 8.33598C31.9471 8.24164 31.7872 8.19448 31.58 8.19448C31.4078 8.19448 31.2632 8.23549 31.1463 8.31752C31.0294 8.39956 30.9576 8.50927 30.931 8.64667H30.2234C30.2337 8.33906 30.367 8.08579 30.6233 7.88686C30.8817 7.68998 31.2088 7.59155 31.6046 7.59155C32.025 7.59155 32.3603 7.69204 32.6105 7.89301C32.8628 8.09399 32.9889 8.36162 32.9889 8.69589V11H32.2537V10.4586H32.2353C32.143 10.637 32.0015 10.7785 31.8107 10.8831C31.6221 10.9856 31.4149 11.0369 31.1894 11.0369Z" fill="white"/>
<path opacity="0.8" d="M34.4133 8.23448V11H33.6504V7.6377H35.9175V8.23448H34.4133Z" fill="white"/>
<path opacity="0.8" d="M38.3046 7.60083C38.7333 7.60083 39.0737 7.75566 39.3259 8.06533C39.5782 8.375 39.7043 8.79336 39.7043 9.32041C39.7043 9.84541 39.5792 10.2627 39.329 10.5724C39.0788 10.8821 38.7415 11.0369 38.3169 11.0369C37.8186 11.0369 37.4669 10.839 37.2618 10.4432H37.2464V12.0797H36.4805V7.63774H37.228V8.20376H37.2434C37.3356 8.01919 37.4771 7.87255 37.6679 7.76386C37.8586 7.65517 38.0708 7.60083 38.3046 7.60083ZM38.0801 10.4001C38.3344 10.4001 38.5374 10.3027 38.6892 10.1079C38.843 9.91103 38.9199 9.64853 38.9199 9.32041C38.9199 8.99228 38.843 8.72978 38.6892 8.53291C38.5374 8.33603 38.3344 8.23759 38.0801 8.23759C37.8299 8.23759 37.6279 8.33706 37.4741 8.53598C37.3203 8.73491 37.2434 8.99638 37.2434 9.32041C37.2434 9.64443 37.3203 9.9059 37.4741 10.1048C37.6279 10.3017 37.8299 10.4001 38.0801 10.4001Z" fill="white"/>
<path opacity="0.8" d="M40.6396 12.2243C40.4898 12.2243 40.3894 12.2192 40.3381 12.2089V11.5998C40.3771 11.608 40.4468 11.6121 40.5473 11.6121C40.861 11.6121 41.062 11.4645 41.1502 11.1692L41.1933 11.0123L39.9905 7.6377H40.8241L41.6301 10.3386H41.6455L42.4483 7.6377H43.2574L42.0392 11.1169C41.8957 11.5291 41.7213 11.8172 41.5163 11.9813C41.3091 12.1433 41.0169 12.2243 40.6396 12.2243Z" fill="white"/>
<path opacity="0.8" d="M44.9553 11.0647C44.5472 11.0647 44.215 10.9714 43.9586 10.7847C43.7002 10.5961 43.5557 10.3397 43.5249 10.0157H44.2693C44.3452 10.3131 44.5739 10.4617 44.9553 10.4617C45.1604 10.4617 45.3204 10.4187 45.4352 10.3325C45.548 10.2485 45.6044 10.1346 45.6044 9.99111C45.6044 9.6876 45.3891 9.53584 44.9584 9.53584H44.4754V9.00058H44.943C45.3142 9.00058 45.4998 8.86216 45.4998 8.5853C45.4998 8.45815 45.4547 8.35766 45.3645 8.28384C45.2681 8.20591 45.1307 8.16694 44.9522 8.16694C44.7759 8.16694 44.6323 8.20386 44.5216 8.27768C44.4088 8.35151 44.3421 8.45405 44.3216 8.5853H43.5926C43.6274 8.27153 43.7648 8.02441 44.0048 7.84394C44.2468 7.66347 44.5616 7.57324 44.9492 7.57324C45.3634 7.57324 45.6844 7.65732 45.912 7.82549C46.1355 7.9916 46.2473 8.21924 46.2473 8.5084C46.2473 8.68066 46.1991 8.83139 46.1027 8.96059C46.0063 9.09184 45.8782 9.17798 45.7182 9.21899V9.2436C46.1489 9.34819 46.3642 9.60044 46.3642 10.0003C46.3642 10.3243 46.2371 10.5827 45.9828 10.7755C45.7285 10.9683 45.386 11.0647 44.9553 11.0647Z" fill="white"/>
<path opacity="0.8" d="M46.9519 11V7.6377H47.7024V9.90791H47.7271L49.2405 7.6377H49.9942V11H49.2405V8.71436H49.2159L47.7024 11H46.9519Z" fill="white"/>
<path opacity="0.8" d="M53.3225 8.23448H52.2858V11H51.5229V8.23448H50.4863V7.6377H53.3225V8.23448Z" fill="white"/>
<path opacity="0.8" d="M55.2145 8.18832C54.9909 8.18832 54.8043 8.26215 54.6546 8.40981C54.5049 8.55952 54.4218 8.75434 54.4054 8.99428H55.9989C55.9907 8.75229 55.9148 8.55747 55.7712 8.40981C55.6277 8.26215 55.4421 8.18832 55.2145 8.18832ZM56.7218 10.0002C56.6726 10.3119 56.5116 10.5642 56.2388 10.757C55.9661 10.9518 55.6338 11.0492 55.2421 11.0492C54.7459 11.0492 54.3531 10.8954 54.064 10.5878C53.7769 10.2802 53.6333 9.86176 53.6333 9.33266C53.6333 8.80356 53.7769 8.3811 54.064 8.06528C54.349 7.74946 54.7325 7.59155 55.2145 7.59155C55.6861 7.59155 56.0604 7.74125 56.3373 8.04067C56.6141 8.34008 56.7525 8.74409 56.7525 9.25268V9.50493H54.3993V9.55107C54.3993 9.82177 54.4782 10.0392 54.6361 10.2032C54.794 10.3694 55.0012 10.4524 55.2575 10.4524C55.4421 10.4524 55.601 10.4114 55.7343 10.3294C55.8676 10.2494 55.9568 10.1397 56.002 10.0002H56.7218Z" fill="white"/>
<path opacity="0.8" d="M59.4779 8.16679V9.01274H60.0901C60.4654 9.01274 60.653 8.87022 60.653 8.58516C60.653 8.30625 60.4859 8.16679 60.1516 8.16679H59.4779ZM59.4779 9.51109V10.4709H60.2039C60.5936 10.4709 60.7884 10.3119 60.7884 9.99405C60.7884 9.67208 60.571 9.51109 60.1362 9.51109H59.4779ZM58.7273 7.6377H60.327C60.6612 7.6377 60.9248 7.71357 61.1175 7.86533C61.3083 8.01708 61.4036 8.22627 61.4036 8.49288C61.4036 8.66924 61.3472 8.82612 61.2344 8.96352C61.1237 9.10297 60.9853 9.18707 60.8191 9.21578V9.24039C61.0386 9.2691 61.2149 9.35523 61.3482 9.49878C61.4836 9.64439 61.5513 9.82178 61.5513 10.031C61.5513 10.3263 61.4436 10.5611 61.2283 10.7354C61.0109 10.9118 60.7176 11 60.3485 11H58.7273V7.6377Z" fill="white"/>
</g>
</svg>
