<svg width="20" height="20" viewBox="0 0 20 20" fill="none" xmlns="http://www.w3.org/2000/svg">
<path d="M8.80758 0C3.95121 0 0 3.95121 0 8.80758C0 13.6642 3.95121 17.6152 8.80758 17.6152C13.6642 17.6152 17.6152 13.6642 17.6152 8.80758C17.6152 3.95121 13.6642 0 8.80758 0ZM8.80758 15.9892C4.84769 15.9892 1.62602 12.7675 1.62602 8.80762C1.62602 4.84773 4.84769 1.62602 8.80758 1.62602C12.7675 1.62602 15.9891 4.84769 15.9891 8.80758C15.9891 12.7675 12.7675 15.9892 8.80758 15.9892Z" fill="black"/>
<path d="M19.761 18.6122L15.0997 13.9509C14.7821 13.6333 14.2677 13.6333 13.9501 13.9509C13.6325 14.2683 13.6325 14.7832 13.9501 15.1005L18.6114 19.7618C18.7702 19.9206 18.9781 20 19.1862 20C19.394 20 19.6022 19.9206 19.761 19.7618C20.0786 19.4444 20.0786 18.9295 19.761 18.6122Z" fill="black"/>
</svg>
