<svg width="100" height="30" viewBox="0 0 100 30" fill="none" xmlns="http://www.w3.org/2000/svg">
<g opacity="0.8">
<path opacity="0.8" d="M95 0H5C2.23858 0 0 2.23858 0 5V24.6875C0 27.4489 2.23858 29.6875 5 29.6875H95C97.7614 29.6875 100 27.4489 100 24.6875V5C100 2.23858 97.7614 0 95 0Z" fill="black"/>
<path opacity="0.8" fill-rule="evenodd" clip-rule="evenodd" d="M35.363 17.1149V18.4509H38.563C38.5129 19.0801 38.2518 19.6739 37.8223 20.1356C37.1732 20.7983 36.2741 21.1543 35.3482 21.1153C33.3846 21.1153 31.7927 19.5204 31.7927 17.5528C31.7927 15.5853 33.3846 13.9903 35.3482 13.9903C36.2523 13.9769 37.1252 14.3209 37.7779 14.9478L38.7186 14.0052C37.8267 13.1213 36.6173 12.6345 35.363 12.6544C33.5697 12.5845 31.8819 13.5032 30.9644 15.0487C30.047 16.5943 30.047 18.5188 30.9644 20.0644C31.8819 21.6099 33.5697 22.5286 35.363 22.4587C36.6447 22.51 37.8872 22.0104 38.7779 21.0856C39.5557 20.2295 39.9702 19.1034 39.9334 17.9462C39.9361 17.6677 39.9138 17.3895 39.8668 17.1149H35.363ZM43.5705 16.1427C41.8277 16.1468 40.4182 17.5657 40.4223 19.3118C40.4264 21.058 41.8425 22.4702 43.5853 22.4661C45.328 22.462 46.7375 21.0431 46.7334 19.297C46.7456 18.4541 46.4158 17.6424 45.8195 17.0478C45.2233 16.4531 44.4116 16.1265 43.5705 16.1427ZM47.326 19.3118C47.3219 17.5657 48.7314 16.1468 50.4742 16.1427C51.3153 16.1265 52.127 16.4531 52.7232 17.0478C53.3195 17.6424 53.6493 18.4541 53.6371 19.297C53.6412 21.0431 52.2317 22.462 50.489 22.4661C48.7462 22.4702 47.3301 21.058 47.326 19.3118ZM48.6164 20.1271C48.9547 20.8365 49.6914 21.2667 50.4742 21.2118C50.9655 21.2004 51.4314 20.9906 51.7661 20.6301C52.1009 20.2695 52.276 19.7888 52.2519 19.297C52.25 18.5107 51.7686 17.8056 51.038 17.5188C50.3074 17.2319 49.476 17.4218 48.9415 17.9974C48.4071 18.5731 48.2781 19.4176 48.6164 20.1271ZM41.7127 20.1271C42.051 20.8365 42.7877 21.2667 43.5705 21.2118C44.0618 21.2004 44.5277 20.9906 44.8624 20.6301C45.1971 20.2695 45.3723 19.7888 45.3482 19.297C45.3463 18.5107 44.8649 17.8056 44.1343 17.5188C43.4037 17.2319 42.5723 17.4218 42.0378 17.9974C41.5034 18.5731 41.3744 19.4176 41.7127 20.1271ZM66.2297 16.1427C67.4578 16.188 68.5305 16.9882 68.926 18.154L69.0816 18.4806L64.8668 20.2247C65.1293 20.8289 65.7355 21.2093 66.3927 21.1821C67.0259 21.1883 67.615 20.8579 67.9408 20.3138L69.0149 21.056C68.2498 22.2173 66.813 22.7354 65.4847 22.3289C64.1565 21.9225 63.2537 20.6884 63.2668 19.297C63.2156 18.478 63.505 17.6743 64.0663 17.0767C64.6276 16.4792 65.4107 16.1411 66.2297 16.1427ZM64.6297 19.2079C64.5994 18.7422 64.7574 18.2839 65.0682 17.9362C65.3789 17.5885 65.8162 17.3808 66.2816 17.3599C66.7695 17.33 67.2278 17.5962 67.4445 18.0353L64.6297 19.2079ZM62.5927 22.2657H61.2075V12.9884H62.5927V22.2657ZM58.9408 16.8478H58.889C58.4702 16.3699 57.8643 16.0989 57.2297 16.1056C55.5483 16.1873 54.227 17.5769 54.227 19.2636C54.227 20.9502 55.5483 22.3399 57.2297 22.4216C57.8656 22.4344 58.474 22.1622 58.889 21.6794H58.9408V22.1321C58.9408 23.3419 58.2964 23.9876 57.2593 23.9876C56.5508 23.972 55.9218 23.5294 55.6668 22.8669L54.4668 23.3642C54.9209 24.5071 56.0316 25.251 57.2593 25.2345C58.8816 25.2345 60.2223 24.2771 60.2223 21.9466V16.3282H58.9408V16.8478ZM55.556 19.3007C55.556 20.312 56.3409 21.1489 57.3482 21.2118C57.8296 21.1933 58.2825 20.9781 58.6015 20.6164C58.9206 20.2547 59.078 19.778 59.0371 19.297C59.0737 18.8177 58.9146 18.3441 58.5962 17.9845C58.2779 17.625 57.8275 17.4103 57.3482 17.3896C56.3409 17.4525 55.556 18.2894 55.556 19.3007ZM75.4149 12.9884H72.0964V22.2657H73.4816V18.7478H75.4149C76.491 18.8252 77.5201 18.2939 78.0817 17.371C78.6433 16.448 78.6433 15.2881 78.0817 14.3652C77.5201 13.4422 76.491 12.9109 75.4149 12.9884ZM73.4816 17.4415H75.4149L75.4445 17.4564C76.0109 17.4564 76.5342 17.1536 76.8173 16.6622C77.1005 16.1708 77.1005 15.5653 76.8173 15.0739C76.5342 14.5825 76.0109 14.2798 75.4445 14.2798H73.4816V17.4415ZM83.963 16.113C82.932 16.0493 81.9621 16.6067 81.4964 17.5306L82.7186 18.0427C82.9709 17.5869 83.467 17.3224 83.9853 17.3673C84.3405 17.3257 84.6975 17.4289 84.976 17.6536C85.2546 17.8782 85.4314 18.2056 85.4668 18.5622V18.6513C85.0213 18.4167 84.5255 18.2944 84.0223 18.295C82.7038 18.295 81.3556 19.0372 81.3556 20.388C81.382 20.9681 81.6419 21.5127 82.0761 21.8973C82.5103 22.282 83.0815 22.4738 83.6593 22.429C84.3671 22.4682 85.0409 22.1221 85.4223 21.5235H85.4668V22.2657H86.8001V18.6958C86.8001 17.0704 85.5705 16.1278 83.9927 16.1278L83.963 16.113ZM82.7112 20.4103C82.7112 20.9669 83.3408 21.197 83.7927 21.197L83.8223 21.2118C84.6596 21.1951 85.3558 20.561 85.4519 19.7274C85.0676 19.5125 84.6327 19.4048 84.1927 19.4157C83.4964 19.4157 82.7112 19.6681 82.7112 20.4103ZM91.6593 16.3282L90.0742 20.3509H90.0297L88.3853 16.3282H86.9038L89.3705 21.954L87.963 25.0786H89.4075L93.2001 16.3282H91.6593ZM80.5927 22.2657H79.2149V12.9884H80.5927V22.2657Z" fill="white"/>
<path opacity="0.8" fill-rule="evenodd" clip-rule="evenodd" d="M7.73317 5.59614C7.48907 5.88531 7.36453 6.25703 7.38502 6.6352V23.0524C7.35982 23.4312 7.48494 23.8047 7.73317 24.0915L7.78502 24.1509L16.9628 14.9552V14.7325L7.78502 5.54419L7.73317 5.59614Z" fill="url(#paint0_linear)"/>
<path opacity="0.8" fill-rule="evenodd" clip-rule="evenodd" d="M19.9999 18.0203L16.9629 14.9551V14.7324L19.9999 11.6672L20.0666 11.7117L23.7037 13.775C24.7407 14.3613 24.7407 15.3262 23.7037 15.9199L20.0814 17.9832L19.9999 18.0203Z" fill="url(#paint1_linear)"/>
<path opacity="0.8" fill-rule="evenodd" clip-rule="evenodd" d="M20.0889 17.9757L16.963 14.8438L7.7334 24.0914C8.16527 24.4766 8.80987 24.4984 9.26673 24.1434L20.0889 17.9757Z" fill="url(#paint2_linear)"/>
<path opacity="0.8" fill-rule="evenodd" clip-rule="evenodd" d="M20.0889 11.7116L9.26673 5.55148C8.81263 5.19131 8.16591 5.21009 7.7334 5.59601L16.963 14.8436L20.0889 11.7116Z" fill="url(#paint3_linear)"/>
<path opacity="0.2" fill-rule="evenodd" clip-rule="evenodd" d="M20 17.9089L9.26673 24.0319C8.82833 24.3635 8.22365 24.3635 7.78525 24.0319L7.7334 24.0839L7.78525 24.1433C8.22365 24.4748 8.82833 24.4748 9.26673 24.1433L20.0889 17.9757L20 17.9089Z" fill="black"/>
<path opacity="0.12" fill-rule="evenodd" clip-rule="evenodd" d="M7.73325 23.9874C7.49532 23.693 7.37872 23.3187 7.40733 22.9409V23.0523C7.38212 23.4311 7.50725 23.8045 7.75548 24.0913L7.80733 24.0394L7.73325 23.9874Z" fill="black"/>
<path opacity="0.12" fill-rule="evenodd" clip-rule="evenodd" d="M23.7037 15.8086L20 17.909L20.0667 17.9757L23.7037 15.9125C24.141 15.7272 24.4423 15.3171 24.4889 14.8438C24.395 15.272 24.1035 15.6302 23.7037 15.8086Z" fill="black"/>
<path opacity="0.25" fill-rule="evenodd" clip-rule="evenodd" d="M9.26649 5.65556L23.7035 13.879C24.1034 14.0574 24.3948 14.4155 24.4887 14.8438C24.4421 14.3704 24.1409 13.9604 23.7035 13.7751L9.26649 5.55166C8.23686 4.95791 7.38501 5.44775 7.38501 6.63525V6.74658C7.40723 5.55908 8.23686 5.06924 9.26649 5.65556Z" fill="white"/>
<path opacity="0.8" d="M34.6941 11.1331H34.0879V10H30.7712V11.1362H30.1619L30.1587 9.50171H30.5364C30.7353 9.27743 30.8929 8.97697 31.0093 8.60034C31.1278 8.2216 31.2018 7.80688 31.2314 7.3562L31.333 5.37891H34.0974V9.50171H34.7004L34.6941 11.1331ZM31.2314 9.50171H33.4849V5.88037H31.9202L31.8535 7.23877C31.826 7.76986 31.7551 8.22266 31.6409 8.59717C31.5287 8.97168 31.3923 9.27319 31.2314 9.50171Z" fill="white"/>
<path opacity="0.8" d="M38.9026 7.83862C38.9026 8.29142 38.8264 8.68709 38.6741 9.02563C38.5217 9.36206 38.3059 9.61914 38.0266 9.79688C37.7473 9.97461 37.4215 10.0635 37.0491 10.0635C36.6851 10.0635 36.3625 9.97461 36.0811 9.79688C35.7996 9.61702 35.5806 9.36206 35.4241 9.03198C35.2696 8.69979 35.1903 8.31576 35.186 7.87988V7.54663C35.186 7.10229 35.2633 6.7098 35.4177 6.36914C35.5722 6.02848 35.7901 5.76823 36.0715 5.58838C36.3551 5.40641 36.6788 5.31543 37.0427 5.31543C37.413 5.31543 37.7389 5.40535 38.0203 5.58521C38.3038 5.76294 38.5217 6.02214 38.6741 6.36279C38.8264 6.70133 38.9026 7.09595 38.9026 7.54663V7.83862ZM38.2964 7.54028C38.2964 6.99227 38.1864 6.57227 37.9663 6.28027C37.7463 5.98617 37.4384 5.83911 37.0427 5.83911C36.6576 5.83911 36.354 5.98617 36.1318 6.28027C35.9118 6.57227 35.7986 6.97852 35.7922 7.49902V7.83862C35.7922 8.36971 35.9033 8.7876 36.1255 9.09229C36.3498 9.39486 36.6576 9.54614 37.0491 9.54614C37.4426 9.54614 37.7473 9.40332 37.9631 9.11768C38.179 8.82992 38.29 8.41838 38.2964 7.88306V7.54028Z" fill="white"/>
<path opacity="0.8" d="M43.2158 8.53369C43.1587 9.02246 42.9778 9.40015 42.6731 9.66675C42.3705 9.93123 41.9674 10.0635 41.4639 10.0635C40.918 10.0635 40.48 9.86776 40.1499 9.47632C39.8219 9.08488 39.658 8.5612 39.658 7.90527V7.46094C39.658 7.03141 39.7341 6.65373 39.8865 6.32788C40.0409 6.00203 40.2589 5.75236 40.5403 5.57886C40.8217 5.40324 41.1475 5.31543 41.5178 5.31543C42.0087 5.31543 42.4023 5.45296 42.6985 5.72803C42.9947 6.00098 43.1672 6.37972 43.2158 6.86426H42.6033C42.5504 6.49609 42.4351 6.22949 42.2573 6.06445C42.0817 5.89941 41.8352 5.81689 41.5178 5.81689C41.1285 5.81689 40.8228 5.96077 40.6006 6.24854C40.3805 6.5363 40.2705 6.94572 40.2705 7.47681V7.92432C40.2705 8.42578 40.3752 8.82463 40.5847 9.12085C40.7942 9.41707 41.0872 9.56519 41.4639 9.56519C41.8024 9.56519 42.0616 9.48901 42.2415 9.33667C42.4234 9.18221 42.544 8.91455 42.6033 8.53369H43.2158Z" fill="white"/>
<path opacity="0.8" d="M47.1482 5.88037H45.6628V10H45.0566V5.88037H43.5745V5.37891H47.1482V5.88037Z" fill="white"/>
<path opacity="0.8" d="M49.4207 8.06079L50.4839 5.37891H51.1917L49.5571 9.22876C49.4471 9.4742 49.3445 9.64876 49.2493 9.75244C49.1541 9.854 49.0419 9.93229 48.9128 9.9873C48.7859 10.0402 48.6262 10.0667 48.4337 10.0667C48.2665 10.0667 48.1596 10.0571 48.113 10.0381L48.1321 9.55566L48.4209 9.56836C48.6431 9.56836 48.8081 9.46151 48.916 9.2478L48.9954 9.08276L49.1161 8.80029L47.5417 5.37891H48.2241L49.4207 8.06079Z" fill="white"/>
<path opacity="0.8" d="M55.4509 10H54.8384V5.88037H52.5596V10H51.9502V5.37891H55.4509V10Z" fill="white"/>
<path opacity="0.8" d="M60.1133 10H59.5007V7.86401H57.1711V10H56.5618V5.37891H57.1711V7.36572H59.5007V5.37891H60.1133V10Z" fill="white"/>
<path opacity="0.8" d="M64.7502 7.83862C64.7502 8.29142 64.6741 8.68709 64.5217 9.02563C64.3694 9.36206 64.1536 9.61914 63.8743 9.79688C63.595 9.97461 63.2691 10.0635 62.8967 10.0635C62.5328 10.0635 62.2101 9.97461 61.9287 9.79688C61.6473 9.61702 61.4283 9.36206 61.2717 9.03198C61.1173 8.69979 61.0379 8.31576 61.0337 7.87988V7.54663C61.0337 7.10229 61.1109 6.7098 61.2654 6.36914C61.4198 6.02848 61.6378 5.76823 61.9192 5.58838C62.2027 5.40641 62.5264 5.31543 62.8904 5.31543C63.2607 5.31543 63.5865 5.40535 63.8679 5.58521C64.1514 5.76294 64.3694 6.02214 64.5217 6.36279C64.6741 6.70133 64.7502 7.09595 64.7502 7.54663V7.83862ZM64.144 7.54028C64.144 6.99227 64.034 6.57227 63.814 6.28027C63.5939 5.98617 63.2861 5.83911 62.8904 5.83911C62.5053 5.83911 62.2017 5.98617 61.9795 6.28027C61.7594 6.57227 61.6462 6.97852 61.6399 7.49902V7.83862C61.6399 8.36971 61.751 8.7876 61.9731 9.09229C62.1974 9.39486 62.5053 9.54614 62.8967 9.54614C63.2903 9.54614 63.595 9.40332 63.8108 9.11768C64.0266 8.82992 64.1377 8.41838 64.144 7.88306V7.54028Z" fill="white"/>
<path opacity="0.8" d="M67.2766 10V5.37891H68.7874C69.2888 5.37891 69.6654 5.48258 69.9172 5.68994C70.1711 5.8973 70.2981 6.2041 70.2981 6.61035C70.2981 6.82617 70.2367 7.01766 70.114 7.18481C69.9913 7.34985 69.8241 7.47786 69.6125 7.56885C69.8622 7.63867 70.059 7.77197 70.2029 7.96875C70.3489 8.16341 70.4219 8.39616 70.4219 8.66699C70.4219 9.08171 70.2875 9.40755 70.0188 9.64453C69.7501 9.88151 69.3703 10 68.8794 10H67.2766ZM67.886 7.83862V9.50171H68.8921C69.1756 9.50171 69.3988 9.42871 69.5618 9.28271C69.7268 9.1346 69.8093 8.93148 69.8093 8.67334C69.8093 8.11686 69.5068 7.83862 68.9016 7.83862H67.886ZM67.886 7.34985H68.8064C69.073 7.34985 69.2856 7.2832 69.4443 7.1499C69.6051 7.0166 69.6855 6.83569 69.6855 6.60718C69.6855 6.35327 69.6115 6.16919 69.4634 6.05493C69.3153 5.93856 69.0899 5.88037 68.7874 5.88037H67.886V7.34985Z" fill="white"/>
</g>
<defs>
<linearGradient id="paint0_linear" x1="12.9416" y1="-5.60493" x2="-1.75905" y2="-1.69953" gradientUnits="userSpaceOnUse">
<stop stop-color="#00A0FF"/>
<stop offset="0.01" stop-color="#00A1FF"/>
<stop offset="0.26" stop-color="#00BEFF"/>
<stop offset="0.51" stop-color="#00D2FF"/>
<stop offset="0.76" stop-color="#00DFFF"/>
<stop offset="1" stop-color="#00E3FF"/>
</linearGradient>
<linearGradient id="paint1_linear" x1="25.0592" y1="7.27323" x2="7.14068" y2="7.27323" gradientUnits="userSpaceOnUse">
<stop stop-color="#FFE000"/>
<stop offset="0.41" stop-color="#FFBD00"/>
<stop offset="0.78" stop-color="#FFA500"/>
<stop offset="1" stop-color="#FF9C00"/>
</linearGradient>
<linearGradient id="paint2_linear" x1="7.47229" y1="10.0339" x2="-4.38512" y2="29.9036" gradientUnits="userSpaceOnUse">
<stop stop-color="#FF3A44"/>
<stop offset="1" stop-color="#C31162"/>
</linearGradient>
<linearGradient id="paint3_linear" x1="0.529636" y1="3.04209" x2="5.82064" y2="11.9153" gradientUnits="userSpaceOnUse">
<stop stop-color="#32A071"/>
<stop offset="0.07" stop-color="#2DA771"/>
<stop offset="0.48" stop-color="#15CF74"/>
<stop offset="0.8" stop-color="#06E775"/>
<stop offset="1" stop-color="#00F076"/>
</linearGradient>
</defs>
</svg>
