<svg width="16" height="16" viewBox="0 0 16 16" fill="none" xmlns="http://www.w3.org/2000/svg">
<path d="M0 15.4521H1.6C2.04 15.4521 2.4 15.0768 2.4 14.6181V7.11173C2.4 6.65302 2.04 6.2777 1.6 6.2777H0V15.4521ZM15.864 9.51376C15.952 9.30525 16 9.08006 16 8.84653V7.94577C16 7.02833 15.28 6.2777 14.4 6.2777H10L10.736 2.39944C10.776 2.21595 10.752 2.01578 10.672 1.84897C10.488 1.47366 10.256 1.1317 9.968 0.83145L9.6 0.439453L4.472 5.78562C4.168 6.10255 4 6.52791 4 6.96995V13.5088C4 14.5764 4.84 15.4521 5.872 15.4521H12.36C12.92 15.4521 13.448 15.1435 13.736 14.6431L15.864 9.51376Z" fill="#22CF67"/>
</svg>
