<svg width="32" height="32" viewBox="0 0 32 32" fill="none" xmlns="http://www.w3.org/2000/svg">
<rect x="1" y="1" width="30" height="30" rx="5" stroke="#787878" stroke-width="1.5"/>
<path fill-rule="evenodd" clip-rule="evenodd" d="M12 7C9.239 7 7 9.239 7 12V20C7 22.761 9.239 25 12 25H20C22.761 25 25 22.761 25 20V12C25 9.239 22.761 7 20 7H12ZM22 9C22.552 9 23 9.448 23 10C23 10.552 22.552 11 22 11C21.448 11 21 10.552 21 10C21 9.448 21.448 9 22 9ZM16 11C18.761 11 21 13.239 21 16C21 18.761 18.761 21 16 21C13.239 21 11 18.761 11 16C11 13.239 13.239 11 16 11ZM16 13C14.3431 13 13 14.3431 13 16C13 17.6569 14.3431 19 16 19C17.6569 19 19 17.6569 19 16C19 14.3431 17.6569 13 16 13Z" fill="#787878"/>
</svg>
