<svg width="28" height="25" viewBox="0 0 28 25" fill="none" xmlns="http://www.w3.org/2000/svg">
<path d="M25.7384 2.32096C24.2722 0.831927 22.3311 0.0180854 20.2595 0.0180854C18.1878 0.0180854 16.2408 0.837955 14.7746 2.32698L14.0089 3.10465L13.2313 2.31493C11.7651 0.825898 9.81218 0 7.74053 0C5.67481 0 3.72782 0.81987 2.26757 2.30287C0.801387 3.7919 -0.00590346 5.76923 3.25037e-05 7.87316C3.25037e-05 9.97709 0.813259 11.9484 2.27944 13.4374L13.4272 24.7589C13.5815 24.9156 13.7893 25 13.9911 25C14.1929 25 14.4007 24.9216 14.555 24.7649L25.7265 13.4615C27.1927 11.9725 28 9.99518 28 7.89125C28.0059 5.78732 27.2045 3.80998 25.7384 2.32096ZM24.5987 12.3101L13.9911 23.0408L3.40727 12.292C2.24383 11.1104 1.60274 9.54304 1.60274 7.87316C1.60274 6.20328 2.23789 4.63588 3.40134 3.46033C4.55885 2.28478 6.1022 1.63371 7.74053 1.63371C9.38479 1.63371 10.9341 2.28478 12.0975 3.46636L13.4391 4.82879C13.7537 5.1483 14.2582 5.1483 14.5728 4.82879L15.9025 3.47842C17.0659 2.29684 18.6152 1.64577 20.2535 1.64577C21.8919 1.64577 23.4352 2.29684 24.5987 3.47239C25.7621 4.65397 26.3973 6.22136 26.3973 7.89125C26.4032 9.56113 25.7621 11.1285 24.5987 12.3101Z" fill="white"/>
</svg>
