<svg width="33" height="33" viewBox="0 0 33 33" fill="none" xmlns="http://www.w3.org/2000/svg">
<path d="M5.95312 8.58984H3.31641V27.0469C3.31641 28.4971 4.50293 29.6836 5.95312 29.6836H24.4102V27.0469H5.95312V8.58984ZM27.0469 3.31641H11.2266C9.77637 3.31641 8.58984 4.50293 8.58984 5.95312V21.7734C8.58984 23.2236 9.77637 24.4102 11.2266 24.4102H27.0469C28.4971 24.4102 29.6836 23.2236 29.6836 21.7734V5.95312C29.6836 4.50293 28.4971 3.31641 27.0469 3.31641ZM25.7285 15.1816H20.4551V20.4551H17.8184V15.1816H12.5449V12.5449H17.8184V7.27148H20.4551V12.5449H25.7285V15.1816Z" fill="#CCCCCC"/>
</svg>
