<svg width="20" height="20" viewBox="0 0 20 20" fill="none" xmlns="http://www.w3.org/2000/svg">
<path d="M13.7497 4.99998V14.5833C13.7497 16.425 12.258 17.9166 10.4163 17.9166C8.57467 17.9166 7.08301 16.425 7.08301 14.5833V4.16665C7.08301 3.01665 8.01634 2.08331 9.16634 2.08331C10.3163 2.08331 11.2497 3.01665 11.2497 4.16665V12.9166C11.2497 13.375 10.8747 13.75 10.4163 13.75C9.95801 13.75 9.58301 13.375 9.58301 12.9166V4.99998H8.33301V12.9166C8.33301 14.0666 9.26634 15 10.4163 15C11.5663 15 12.4997 14.0666 12.4997 12.9166V4.16665C12.4997 2.32498 11.008 0.833313 9.16634 0.833313C7.32467 0.833313 5.83301 2.32498 5.83301 4.16665V14.5833C5.83301 17.1166 7.88301 19.1666 10.4163 19.1666C12.9497 19.1666 14.9997 17.1166 14.9997 14.5833V4.99998H13.7497Z" fill="black"/>
</svg>
