<svg width="17" height="16" viewBox="0 0 17 16" fill="none" xmlns="http://www.w3.org/2000/svg">
<path d="M10.8182 0.643921H3.86364C3.22227 0.643921 2.67364 1.01924 2.44182 1.55969L0.108182 6.85165C0.0386363 7.02429 0 7.20444 0 7.39961V8.90087C0 9.72656 0.695454 10.4021 1.54545 10.4021H6.42136L5.68727 13.8325L5.66409 14.0727C5.66409 14.3805 5.79545 14.6657 6.00409 14.8684L6.82318 15.6566L11.9155 10.7099C12.1936 10.4397 12.3636 10.0643 12.3636 9.6515V2.14518C12.3636 1.31949 11.6682 0.643921 10.8182 0.643921ZM13.9091 0.643921V9.6515H17V0.643921H13.9091Z" fill="#EB0000"/>
</svg>
