<svg width="27" height="30" viewBox="0 0 27 30" fill="none" xmlns="http://www.w3.org/2000/svg">
<path d="M22.5 21.2048C21.36 21.2048 20.34 21.6566 19.56 22.3645L8.865 16.1145C8.94 15.7681 9 15.4217 9 15.0602C9 14.6988 8.94 14.3524 8.865 14.006L19.44 7.81627C20.25 8.56928 21.315 9.03614 22.5 9.03614C24.99 9.03614 27 7.01807 27 4.51807C27 2.01807 24.99 0 22.5 0C20.01 0 18 2.01807 18 4.51807C18 4.87952 18.06 5.2259 18.135 5.57229L7.56 11.762C6.75 11.009 5.685 10.5422 4.5 10.5422C2.01 10.5422 0 12.5602 0 15.0602C0 17.5602 2.01 19.5783 4.5 19.5783C5.685 19.5783 6.75 19.1114 7.56 18.3584L18.24 24.6235C18.165 24.9398 18.12 25.2711 18.12 25.6024C18.12 28.0271 20.085 30 22.5 30C24.915 30 26.88 28.0271 26.88 25.6024C26.88 23.1777 24.915 21.2048 22.5 21.2048Z" fill="black"/>
</svg>
