<svg width="16" height="15" viewBox="0 0 16 15" fill="none" xmlns="http://www.w3.org/2000/svg">
<path fill-rule="evenodd" clip-rule="evenodd" d="M8 0C8.20311 0 8.3886 0.113192 8.47839 0.29194L10.6617 4.63828L15.5434 5.33521C15.7443 5.36388 15.9111 5.50186 15.9738 5.69119C16.0366 5.88052 15.9844 6.08839 15.8392 6.22746L12.3063 9.61083L13.1403 14.3884C13.1746 14.5848 13.0923 14.7832 12.928 14.9002C12.7636 15.0172 12.5459 15.0326 12.3662 14.9398L8 12.6845L3.63381 14.9398C3.45414 15.0326 3.23636 15.0172 3.07204 14.9002C2.90773 14.7832 2.8254 14.5848 2.85968 14.3884L3.69372 9.61083L0.16081 6.22746C0.0155983 6.08839 -0.036595 5.88052 0.0261596 5.69119C0.0889142 5.50186 0.255743 5.36388 0.456551 5.33521L5.33829 4.63828L7.52161 0.29194C7.6114 0.113192 7.79688 0 8 0ZM8 1.7069L6.17107 5.34777C6.09344 5.50231 5.94325 5.60945 5.76947 5.63426L1.67833 6.21832L4.63921 9.05388C4.7647 9.17406 4.82196 9.34708 4.79235 9.51666L4.09354 13.5196L7.75155 11.6302C7.90706 11.5499 8.09293 11.5499 8.24845 11.6302L11.9065 13.5196L11.2076 9.51666C11.178 9.34708 11.2353 9.17406 11.3608 9.05388L14.3217 6.21832L10.2305 5.63426C10.0568 5.60945 9.90656 5.50231 9.82893 5.34777L8 1.7069Z" fill="black"/>
</svg>
