<svg width="32" height="32" viewBox="0 0 32 32" fill="none" xmlns="http://www.w3.org/2000/svg">
<rect x="1" y="1" width="30" height="30" rx="5" stroke="#787878" stroke-width="1.5"/>
<path d="M25.3535 11.1786C25.1703 10.1675 24.2975 9.43115 23.2845 9.20127C21.7687 8.87979 18.9634 8.6499 15.9282 8.6499C12.8948 8.6499 10.0446 8.87979 8.52698 9.20127C7.51585 9.43115 6.64121 10.1208 6.45802 11.1786C6.27303 12.3281 6.08984 13.9373 6.08984 16.0062C6.08984 18.0752 6.27303 19.6844 6.50292 20.8338C6.6879 21.8449 7.56075 22.5813 8.57188 22.8112C10.1811 23.1327 12.9397 23.3625 15.9749 23.3625C19.0101 23.3625 21.7687 23.1327 23.3779 22.8112C24.3891 22.5813 25.2619 21.8916 25.4469 20.8338C25.6301 19.6844 25.86 18.0285 25.9067 16.0062C25.8133 13.9373 25.5834 12.3281 25.3535 11.1786ZM13.4462 19.2246V12.7878L19.055 16.0062L13.4462 19.2246Z" fill="#787878"/>
</svg>
