<svg width="22" height="21" viewBox="0 0 22 21" fill="none" xmlns="http://www.w3.org/2000/svg">
<path d="M0 20.1919H2.2C2.805 20.1919 3.3 19.6915 3.3 19.0798V9.07142C3.3 8.4598 2.805 7.95938 2.2 7.95938H0V20.1919ZM21.813 12.2741C21.934 11.9961 22 11.6959 22 11.3845V10.1835C22 8.96022 21.01 7.95938 19.8 7.95938H13.75L14.762 2.78836C14.817 2.54371 14.784 2.27682 14.674 2.05441C14.421 1.55399 14.102 1.09805 13.706 0.697711L13.2 0.175049L6.149 7.30327C5.731 7.72585 5.5 8.29299 5.5 8.88238V17.6008C5.5 19.0242 6.655 20.1919 8.074 20.1919H16.995C17.765 20.1919 18.491 19.7804 18.887 19.1132L21.813 12.2741Z" fill="white"/>
</svg>
