<svg width="125" height="23" viewBox="0 0 125 23" fill="none" xmlns="http://www.w3.org/2000/svg">
<path d="M0 23V0H15.6231V5.50704H6.25565V9.32958H13.8908V14.4479H6.25565V23H0Z" fill="white"/>
<path d="M39.1211 17.493V23H22.8885V0H38.8324V5.50704H29.1442V8.74648H37.4209V13.8648H29.1442V17.493H39.1211Z" fill="white"/>
<path d="M46.8422 23V0H57.3004C58.4125 0 59.4391 0.237559 60.3801 0.712676C61.3211 1.1662 62.1231 1.77089 62.7861 2.52676C63.4705 3.26103 64.0051 4.11408 64.3901 5.08592C64.7751 6.03615 64.9676 6.99718 64.9676 7.96901C64.9676 9.30798 64.6788 10.5606 64.1014 11.7268C63.5239 12.8714 62.7219 13.8108 61.6954 14.5451L66.5074 23H59.4497L55.4397 15.938H53.0979V23H46.8422ZM53.0979 10.431H57.0437C57.4287 10.431 57.7816 10.215 58.1024 9.7831C58.4446 9.35117 58.6157 8.74648 58.6157 7.96901C58.6157 7.16995 58.4232 6.56526 58.0382 6.15493C57.6533 5.723 57.2683 5.50704 56.8833 5.50704H53.0979V10.431Z" fill="white"/>
<path d="M90.5293 23V10.8845L86.7117 19.4042H83.3754L79.5578 10.8845V23H73.3022V0H80.1353L85.0435 10.8197L89.9839 0H96.7849V23H90.5293Z" fill="white"/>
<path d="M111.398 0H117.108L125 23H118.648L117.269 18.4972H111.205L109.858 23H103.474L111.398 0ZM116.274 14.2859L114.253 7.15915L112.136 14.2859H116.274Z" fill="white"/>
</svg>
