<svg width="25" height="25" viewBox="0 0 25 25" fill="none" xmlns="http://www.w3.org/2000/svg">
<path d="M24.9798 22.2651C24.443 18.1627 22.2959 15.3927 18.5386 14.0252C18.4174 13.981 18.2866 13.9739 18.1618 14.005C18.0369 14.0361 17.9232 14.104 17.8341 14.2005C16.6599 15.4628 14.6471 16.1991 12.4665 16.1991C10.2859 16.1991 8.27299 15.4628 7.09882 14.2005C7.00973 14.104 6.89601 14.0361 6.77114 14.005C6.64627 13.9739 6.51548 13.981 6.39431 14.0252C2.70406 15.3927 0.523457 18.1627 0.0202405 22.2651C-0.0227197 22.6024 0.00288212 22.9453 0.095374 23.2716C0.187866 23.5979 0.345167 23.9001 0.557004 24.1585C0.778309 24.4238 1.05162 24.6362 1.35841 24.7814C1.66519 24.9266 1.99827 25.0012 2.33504 25H22.665C23.0017 25.0012 23.3348 24.9266 23.6416 24.7814C23.9484 24.6362 24.2217 24.4238 24.443 24.1585C24.6548 23.9001 24.8121 23.5979 24.9046 23.2716C24.9971 22.9453 25.0227 22.6024 24.9798 22.2651ZM23.403 23.2468C23.3062 23.36 23.1871 23.4499 23.054 23.5105C22.9208 23.571 22.7766 23.6007 22.6314 23.5975H2.33504C2.18983 23.6007 2.04569 23.571 1.9125 23.5105C1.77931 23.4499 1.66023 23.36 1.56344 23.2468C1.46945 23.1391 1.39961 23.0108 1.35899 22.8713C1.31837 22.7318 1.30799 22.5846 1.3286 22.4404C1.76472 19.0743 3.50921 16.7251 6.49495 15.4979C7.93751 16.8303 10.1517 17.6017 12.5 17.6017C14.8483 17.6017 17.0289 16.8303 18.505 15.4979C21.4908 16.7251 23.2353 19.0743 23.6714 22.4754C23.687 22.6141 23.6741 22.7546 23.6336 22.8876C23.5931 23.0206 23.5259 23.1431 23.4366 23.2468H23.403Z" fill="white"/>
<path d="M12.5002 13.7097C15.6537 13.7097 18.2369 10.6241 18.2369 6.87237C18.2369 3.12062 15.6537 0 12.5002 0C9.34673 0 6.76355 3.08555 6.76355 6.8373C6.76355 10.5891 9.34673 13.7097 12.5002 13.7097ZM12.5002 1.43759C14.9157 1.43759 16.895 3.892 16.895 6.87237C16.895 9.85273 14.9157 12.3071 12.5002 12.3071C10.0848 12.3071 8.10546 9.85273 8.10546 6.87237C8.10546 3.892 10.0848 1.40252 12.5002 1.40252V1.43759Z" fill="white"/>
<ellipse cx="12.495" cy="6.855" rx="5.735" ry="6.855" fill="white"/>
</svg>
