<svg width="15" height="15" viewBox="0 0 15 15" fill="none" xmlns="http://www.w3.org/2000/svg">
<path fill-rule="evenodd" clip-rule="evenodd" d="M5.0625 0.375C4.75184 0.375 4.5 0.62684 4.5 0.9375C4.5 1.24816 4.75184 1.5 5.0625 1.5H9.9375C10.2482 1.5 10.5 1.24816 10.5 0.9375C10.5 0.62684 10.2482 0.375 9.9375 0.375H5.0625ZM0.375 3.75C0.375 3.43934 0.62684 3.1875 0.9375 3.1875H2.25H12.75H14.0625C14.3732 3.1875 14.625 3.43934 14.625 3.75C14.625 4.06066 14.3732 4.3125 14.0625 4.3125H13.2685L12.4535 14.2958C12.4297 14.5877 12.1858 14.8125 11.8929 14.8125H3.10714C2.81423 14.8125 2.57034 14.5877 2.54651 14.2958L1.73155 4.3125H0.9375C0.62684 4.3125 0.375 4.06066 0.375 3.75ZM2.86029 4.3125H12.1397L11.3744 13.6875H3.6256L2.86029 4.3125ZM5.8125 5.25C6.12316 5.25 6.375 5.50184 6.375 5.8125L6.375 11.4375C6.375 11.7482 6.12316 12 5.8125 12C5.50184 12 5.25 11.7482 5.25 11.4375V5.8125C5.25 5.50184 5.50184 5.25 5.8125 5.25ZM9.75 5.8125C9.75 5.50184 9.49816 5.25 9.1875 5.25C8.87684 5.25 8.625 5.50184 8.625 5.8125V11.4375C8.625 11.7482 8.87684 12 9.1875 12C9.49816 12 9.75 11.7482 9.75 11.4375V5.8125Z" fill="black"/>
</svg>
