<svg width="22" height="20" viewBox="0 0 22 20" fill="none" xmlns="http://www.w3.org/2000/svg">
<path fill-rule="evenodd" clip-rule="evenodd" d="M12.8112 0.672526C13.7205 0.162622 14.6818 0 15.9174 0C19.3141 0 22 2.81967 22 6.29865C22 8.11275 21.2711 9.37885 20.2502 10.6144C20.2375 10.6297 20.2243 10.6446 20.2107 10.6591L11.6737 19.7119C11.5004 19.8956 11.2581 19.9999 11.0045 20C10.7508 20.0001 10.5084 19.8959 10.3351 19.7123L1.78829 10.6595C1.77441 10.6448 1.76102 10.6296 1.74816 10.6141C0.726743 9.3768 0 8.10238 0 6.28886C0 2.79398 2.69795 0.0567201 6.08094 0.0567201C7.30499 0.0567201 8.265 0.201672 9.17552 0.694108C9.81682 1.04094 10.3887 1.53777 10.9983 2.17435C11.6054 1.53544 12.1746 1.02948 12.8112 0.672526ZM13.7136 2.25522C13.1452 2.57393 12.5819 3.11784 11.6888 4.12839C11.5147 4.32537 11.2634 4.43831 10.9993 4.43827C10.7352 4.43823 10.4839 4.32521 10.3099 4.12818C9.42138 3.12219 8.86027 2.59458 8.29777 2.29036C7.76944 2.00462 7.15962 1.8749 6.08094 1.8749C3.75935 1.8749 1.83333 3.74896 1.83333 6.28886C1.83333 7.51149 2.28099 8.38462 3.14773 9.43922L11.0038 17.7604L18.8509 9.43926C19.72 8.38291 20.1667 7.51857 20.1667 6.29865C20.1667 3.74515 18.2241 1.81818 15.9174 1.81818C14.8502 1.81818 14.2425 1.95859 13.7136 2.25522Z" fill="black"/>
</svg>
