<svg width="12" height="11" viewBox="0 0 12 11" fill="none" xmlns="http://www.w3.org/2000/svg">
<path fill-rule="evenodd" clip-rule="evenodd" d="M6.98792 0.369889C7.48391 0.0894424 8.00825 0 8.68221 0C10.535 0 12 1.55082 12 3.46426C12 4.46201 11.6024 5.15837 11.0456 5.8379C11.0386 5.84633 11.0315 5.85454 11.024 5.86251L6.36748 10.8415C6.27296 10.9426 6.1408 11 6.00244 11C5.86407 11 5.73188 10.9427 5.63731 10.8417L0.97543 5.86272C0.967859 5.85463 0.960559 5.8463 0.953541 5.83773C0.396406 5.15724 0 4.45631 0 3.45887C0 1.53669 1.47161 0.031196 3.31688 0.031196C3.98454 0.031196 4.50818 0.11092 5.00483 0.38176C5.35463 0.572518 5.66658 0.845774 5.99906 1.19589C6.3302 0.84449 6.64072 0.566212 6.98792 0.369889ZM7.48012 1.24037C7.17011 1.41566 6.86286 1.71481 6.37571 2.27062C6.28075 2.37895 6.14368 2.44107 5.99962 2.44105C5.85555 2.44102 5.7185 2.37887 5.62358 2.2705C5.13893 1.71721 4.83287 1.42702 4.52606 1.2597C4.23787 1.10254 3.90525 1.0312 3.31688 1.0312C2.05055 1.0312 1 2.06193 1 3.45887C1 4.13132 1.24418 4.61154 1.71694 5.19157L6.00208 9.76822L10.2823 5.19159C10.7563 4.6106 11 4.13521 11 3.46426C11 2.05983 9.94041 1 8.68221 1C8.10013 1 7.76866 1.07722 7.48012 1.24037Z" fill="black"/>
</svg>
