<svg width="16" height="10" viewBox="0 0 16 10" fill="none" xmlns="http://www.w3.org/2000/svg">
<path fill-rule="evenodd" clip-rule="evenodd" d="M1.48859 5.81962C1.35547 5.68546 1.24446 5.56802 1.15754 5.4734C1.24921 5.34758 1.37168 5.18443 1.52217 4.99486C1.88827 4.53369 2.4172 3.91997 3.06893 3.30781C4.39049 2.06646 6.13466 0.909091 8 0.909091C9.86534 0.909091 11.6095 2.06646 12.9311 3.30781C13.5828 3.91997 14.1117 4.53369 14.4778 4.99486C14.6283 5.18443 14.7508 5.34757 14.8425 5.4734C14.7555 5.56802 14.6445 5.68546 14.5114 5.81962C14.1472 6.18666 13.62 6.67606 12.9698 7.16467C11.6582 8.15024 9.90129 9.09091 8 9.09091C6.09871 9.09091 4.34176 8.15024 3.03018 7.16467C2.37995 6.67606 1.85282 6.18666 1.48859 5.81962ZM15.4281 5.50505C15.8183 5.25875 15.8182 5.25863 15.8181 5.25848L15.4281 5.50505ZM15.7891 5.79087L16 5.53466L15.8181 5.25848L15.8172 5.25699L15.8148 5.2534L15.8064 5.24083C15.7992 5.23011 15.7888 5.21473 15.7752 5.19501C15.7482 5.15557 15.7087 5.09874 15.6573 5.02699C15.5545 4.88356 15.4041 4.68023 15.2109 4.43696C14.8253 3.95115 14.2664 3.30225 13.5739 2.65179C12.207 1.36788 10.2371 0 8 0C5.7629 0 3.79301 1.36788 2.42612 2.65179C1.73362 3.30225 1.17473 3.95115 0.789061 4.43696C0.595936 4.68023 0.445501 4.88356 0.342727 5.02699C0.291323 5.09874 0.251792 5.15557 0.224754 5.19501C0.211234 5.21473 0.200834 5.23011 0.193631 5.24083L0.185232 5.2534L0.182848 5.25699L0.182113 5.2581L0 5.53466L0.210394 5.79027L0.211692 5.79184L0.214212 5.79488L0.222886 5.80526L0.254573 5.84259C0.281992 5.87458 0.321918 5.9205 0.373729 5.97835C0.477318 6.09401 0.628614 6.25759 0.822638 6.45311C1.21018 6.84364 1.77087 7.36435 2.46486 7.88584C3.84174 8.92047 5.79885 10 8 10C10.2011 10 12.1583 8.92047 13.5351 7.88584C14.2291 7.36435 14.7898 6.84364 15.1774 6.45311C15.3714 6.25759 15.5227 6.09401 15.6263 5.97835C15.6781 5.9205 15.718 5.87458 15.7454 5.84259L15.7771 5.80526L15.7858 5.79488L15.7883 5.79184L15.7891 5.79087ZM15.7891 5.79087C15.7892 5.79074 15.7896 5.79027 15.4281 5.50505L15.7891 5.79087ZM0.210394 5.79027L0.571878 5.50505C0.210394 5.79027 0.210283 5.79014 0.210394 5.79027ZM0.571878 5.50505L0.182113 5.2581C0.182018 5.25824 0.181683 5.25875 0.571878 5.50505ZM5.67852 4.99999C5.67852 3.7448 6.71779 2.72727 7.9998 2.72727C9.28182 2.72727 10.3211 3.7448 10.3211 4.99999C10.3211 6.25519 9.28182 7.27272 7.9998 7.27272C6.71779 7.27272 5.67852 6.25519 5.67852 4.99999ZM7.9998 1.81818C6.20499 1.81818 4.75 3.24272 4.75 4.99999C4.75 6.75726 6.20499 8.18181 7.9998 8.18181C9.79462 8.18181 11.2496 6.75726 11.2496 4.99999C11.2496 3.24272 9.79462 1.81818 7.9998 1.81818Z" fill="black"/>
</svg>
